<svg version="1.2" xmlns="http://www.w3.org/2000/svg" viewBox="0 0 1556 1554" width="1556" height="1554">
	<title>Bitmaped-svg</title>
	<style>
		.s0 { fill: #007054 } 
		.s1 { fill: #1177a2 } 
		.s2 { fill: #56afd5 } 
	</style>
	<g id="#007054ff">
		<path id="Layer" fill-rule="evenodd" class="s0" d="m1224.5 328.9c110.1-109 217.6-220.8 329.4-328 3.7 138.4 0.2 277 1.9 415.6-0.7 21.5 1.9 43.6-3.7 64.7-15.4 20.4-34.8 37.1-52.7 55.3-195.2 195.1-389.8 390.8-585.1 585.7-13.8 16.8-37.4 11.7-56.5 13.1-146.5-1.5-292.9 1.4-439.4-1.6 67.7-72.4 138.8-141.8 210.1-210.8 199.2-197.4 395.1-398.3 596-594zm97.3 68.5c-204.1 205.9-411.1 408.8-613.4 616.5 45.7 0.5 91.5 3 137-0.5 12.2-0.6 19-12.8 27.8-19.7 185.6-188.4 375-373.4 559.4-562.7 6.7-47.7 1.8-96.4 2-144.5-39.3 35.2-75.3 73.9-112.8 110.9z"/>
	</g>
	<g id="#1177a2ff">
		<path id="Layer" fill-rule="evenodd" class="s1" d="m1242.4 898.8c104.7-102.7 206.4-208.5 311.9-310.4 1.9 321.4 0.7 642.9 0.6 964.4-113.8 0.7-227.5 0.7-341.3 0-0.6-201.4-0.1-402.9-0.3-604.4-3.7-22 16.2-35.4 29.1-49.6zm95.3 76.3c-10.5 10.7-5 27.7-6.9 41.1 0.7 138.9 0.1 277.9 0.4 416.9 35.4 0.1 70.8 0.1 106.1-0.1-0.1-185.5 0.6-371-0.2-556.6-34 32.1-67.8 64.3-99.4 98.7z"/>
	</g>
	<g id="#56afd5ff">
		<path id="Layer" fill-rule="evenodd" class="s2" d="m327.9 1222.3c8.2-12.4 22.8-12.1 36-12 258 0.3 515.9 0 773.8 0.1 0 114.1 0.1 228.1 0 342.2-379-0.2-758 1.2-1136.9-0.6 107.3-111.6 218.6-219.3 327.1-329.7zm-39.9 210.2c243.5 1.1 487 0.6 730.5 0.3-0.3-34.8-0.2-69.7-0.3-104.6-207.7 0-415.5-1.2-623.2 0.6-39.4 30-71 69.7-107 103.7z"/>
	</g>
</svg>