<svg version="1.2" xmlns="http://www.w3.org/2000/svg" viewBox="0 0 1319 1540" width="1319" height="1540">
	<title>coptttt-svg</title>
	<style>
		.s0 { fill: #a72b2a } 
		.s1 { fill: #14327d } 
	</style>
	<path id="Layer" class="s0" d="m265.3 873.8c47 72.6 79.7 162.2 55.8 245.4-25.1-89.7-83.1-169.8-160.6-221.4-49-32.7-103.5-53.2-160-69.4-0.9-15-0.3-23.1-0.3-23.1v-209.9c95.9 86.3 195.3 170.3 265.1 278.4zm-153.8 243.4c-29.7-43.2-51.5-83.9-67.5-120.8 73.6 20.2 142 49.6 197.9 101.6-44.6-3.8-88.5 3.9-130.4 19.2zm114.8-801.4c108.4 182.9 235 444.6 222.4 653.9-2.1 33.4-7.9 66.7-19.6 98.2-4.5 12.2-33.8 82.9-48.4 73.2-4.7-3.1-9.3-6.2-13.9-9.2-7.8-5.2 23-58.1 27.2-69.2 9.5-25.9 16.3-52.9 20.1-80.3 7.7-54.8 4-111.2-12-164.2-45.4-150.9-176.2-256.8-284.1-371.5-42.5-44.7-81.8-92.3-117.8-142.3v-304.4h87.3c43.6 176.9 131.6 305.5 138.8 315.8zm111.7 861.7c-38.1 25-65.8 60.3-84.8 100.7-23.2-21.3-44.3-42.5-63.5-63.2 45.8-25.2 96.5-40.7 148.1-37.5"/>
	<path id="Layer" fill-rule="evenodd" class="s1" d="m659.2 1539.4c-47.8-22.2-92.1-44.9-133.3-67.9l263.5-222.4-19.9 105.9 361.9-365-266.9 194.5 46-116.8-415.5 336.1 24.1-90.5-98 94.7c-28.2-18.5-54.6-37-79.1-55.7-2.9-46.4 2.9-92.4 25.3-132.6 23-41.3 60.6-71.1 95.8-101.4 52.9-45.7 88.5-94.4 111.8-160.7 27.4-77.8 45.2-155.9 104.4-217.1 32.6-33.7 60.8-69.6 103.4-91.7 18.5-9.6 53.5-22.4 80.7-0.7 11.9 9.6 25.5 20.8 30.9 35.7 14.9-14.1 26.9-31.5 34.7-50.5 7-16.8 3.6-34.9-3.9-51.3-12.3-27.1-39.7-48.3-74.9-58.3-4.3-1.2-8.6-2.2-12.9-3.3-7.2-1.8-14.2-3.4-20.5-5.9-9.9-3.8-16.6-11.8-24.2-21-5.2-6.3-10.6-12.8-17.6-18.8-17-14.6-37.9-25.5-62.1-32.6-31.7-9.3-66.6-10.7-101.1-4.2-22.1 4.1-41.4 7.1-58.2 9.2-20-48-37.7-79-41.1-84.6-46.4-106.1-96.6-232.4-137.3-362.5h943.1v805.3c-0.1 0 29.8 413.6-659.1 734.1zm535-1195.8l-0.2-0.2v0.2zm-0.3-0.2l-33.5-103.3 88.1-64.1h-108.8l-33.6-103.5-33.6 103.5h-108.8l88 64.1-33.6 103.5 88.1-64z"/>
</svg>