<svg version="1.2" xmlns="http://www.w3.org/2000/svg" viewBox="0 0 1567 1391" width="1567" height="1391">
	<title>logo (5)-svg</title>
	<style>
		.s0 { fill: #23438c } 
	</style>
	<path id="Layer" class="s0" d="m1341.3 1133.9c5.4-7.4 3.4-27.9-28.4-25.9h-2.7-633.4c-49 0-52.7-19-59-24.8l-1.8-2.6-187.8-325.2-1.5-3c-23.7-40.1 0-76.5 44.7-76.8h248.3c25.3 1.1 38.8-9.5 42.9-15.7l1.7-2.2 132.1-229 2-3.4c21-37.9-24.2-32.2-26.8-32.3h-3.1-282.3-3.8c-2.8 0-43.5-3-56.9 20.6l-2.7 3.7-1 1.8-307.6 532.8-1.4 3.1c-2.8 6.5-24.3 27-8 59.1l1.7 3.6 194.5 337 1 1.9c14.4 20.4 34.4 33.1 75.1 33.8h4.5 670.2c10.5-1.2 40.2-1.6 58.4-29.2l1.3-2.2 128.4-222.4zm-444.3-1132.4c-9.4-0.9-25.8 11-8.1 37.9l1.5 2.2 314.5 545.2 1.9 3.5c24.8 42.3 10.2 55 8 63.4l-1.4 3-187.7 325.2-1.8 2.9c-23 40.5-66.4 37.9-88.9 0l-1.8-3-120.2-208.5-2.2-3.9c-11.7-22.5-27.6-28.4-35.1-29.4h-2.7-267.9c-43.1 0.6-15.9 37.1-14.7 39.4l1.7 2.6 141 244.4 1.9 3.5c1.4 2.4 19 39.2 46.2 38.9h4.6 617.3 3.3c7.1-0.9 35.6 7.4 55.3-22.8l2.1-3.3 194.5-336.8 1.2-1.7c10.5-22.9 11.5-46.5-8.3-82l-2-4.1-333.6-578-1.2-3.1c-6.3-8.4-21.5-34.1-54.4-36h-263zm-759.3 948c3.8 8.3 22.5 16.8 36.7-11.8l1.1-2.4 314.8-545.3 2.1-3.3c24.2-42.7 42.5-36.4 50.9-38.7h3.2 379.2c46.5 0 66.3 37.9 44.1 77.2l-1.6 3-120.2 208.6-2.2 3.8c-13.7 21.4-11.3 37.9-8 45.1l1.2 2.5 131.8 228.4 2 3.4c21.9 37 40-4.9 41.3-7l1.5-2.8 141-244.4 2.1-3.3c1.4-2.5 24.4-36.2 10.6-59.5l-1.9-4.1-0.9-1.9-307.7-532.9-1.9-2.8c-4.2-5.7-11.3-34.5-47.4-36.5h-3.8-391c-25 2.2-45.9 13.1-66.9 48l-2.4 3.9-333.5 577.4-1.3 2.9c-4.1 9.5-19 35.6-3.9 65.1l1.2 2.2 128.2 222.8z"/>
</svg>