<svg version="1.2" xmlns="http://www.w3.org/2000/svg" viewBox="0 0 1420 1519" width="1420" height="1519">
	<title>2022-ESG-AR-V11-1-1-pdf-svg (2)-svg</title>
	<defs>
		<clipPath clipPathUnits="userSpaceOnUse" id="cp1">
			<path d="m-7978.78-11270.31h14379.35v18615.42h-14379.35z"/>
		</clipPath>
	</defs>
	<style>
		.s0 { fill: #2a317d } 
		.s1 { fill: #b8babc } 
	</style>
	<g id="Clip-Path: Clip-Path: Page 1" clip-path="url(#cp1)">
		<g id="Clip-Path: Page 1">
			<g id="Page 1">
				<path id="Path 5" class="s0" d="m827.5 0c210.1 501.9 341.7 972 97.4 1289.2q-153.9-105.9-356.1 0c250.5-619.3 309-1016.4 258.7-1289.2z"/>
				<path id="Path 6" class="s1" d="m806.1 356.2c-177.3 331.3-344 655.6-501.5 976.4 98.6-58.6 180.9-82.3 215.1-43.4-7-183.5 120.8-534.7 286.4-933zm-117.3 1130.3c71.7-11.7 137.5-51.5 187.9-149-96.3-50.6-296.1-20.2-544 49.2 180 7 307.8 37.8 356.1 99.8z"/>
				<path id="Path 7" fill-rule="evenodd" class="s0" d="m628.8 1512.6c-76.3-75.3-186.6-92.8-301.9-79.9-116.2 12.8-216.3 48-326.6 76.3 299.7-27.2 440.7-45.9 632 7.1zm139.9 2.3c16.4-3.5 127.9-28.4 250.2-24.9 122.3 3.8 253.6 34.3 400.5 1.2-187.8 5-234.9-53.8-358.1-66.7-122.3-13.2-220.9 18.7-303.1 93.9z"/>
			</g>
		</g>
	</g>
</svg>