<svg version="1.2" xmlns="http://www.w3.org/2000/svg" viewBox="0 0 652 1233" width="652" height="1233">
	<title>EGP_BIG copy-svg-svg</title>
	<style>
		.s0 { fill: #01696d } 
	</style>
	<g id="Clip-Path: Clip-Path: Page 1">
		<g id="Clip-Path: Page 1">
			<g id="Page 1">
				<path id="Path 91" fill-rule="evenodd" class="s0" d="m629.1 202.3c-3.3-8.5-3.3-13.6-6.3-17-8.6-20-17.1-36.6-25.6-57-8.1-15.3-20-35.4-31.9-47.2-3.4-8.1-8.6-13.3-11.5-16.6-12-12-29-17.1-45.6-17.1h-35.4-100.9c-40.5 0-77.6-3.4-118-3.4-14.9 0-28.5 3.4-43.9 3.4-4.7 0-11.5 5.1-16.6 8.5-11.9 5.1-15.4 11.9-20 28.5 0 8.5 0 17-3.5 20.5v11.4 400.5c0 8.6 3.5 15.4 3.5 29 0 14.9 11.5 26.8 25.1 32 6.8 0 11.5 3.3 20 3.3h32 201.9 11.9c17 0 28.6-8.5 37.1-20.4 6.8-8.1 15.3-20 20-31.9 3.4-12 6.8-23.4 11.9-31.9 0-5.1 0-5.1 3.5-5.1v8.5c0 31.9 0 68.9-3.5 100.9v109.3 8.5 3.5c-5.1-3.5-5.1-8.5-5.1-12-6.8-11.4-11.5-23.4-20-37-3.4-11.5-11.9-20-15.3-26.8-8.1-8.6-16.7-13.6-28.6-13.6h-40.5-181.4c-11.9 0-23.9 0-37.1 5-3.4 3.5-6.8 3.5-11.9 3.5-11.9 8.5-15.4 17-20 31.9 0 8.5-3.5 17.1-3.5 28.5v126.5 84.2c3.5 69 3.5 132.8 3.5 201.8v23.8c4.6 20 8.1 33.6 25.1 37.1 3.4 2.9 6.8 2.9 14.9 2.9 8.5 5.2 17.1 5.2 29 5.2h279c15.4 0 32.4-8.1 43.9-20.1 11.9-8.5 20.5-20.4 28.5-31.9q23-30.2 40.5-60.8c3.4-13.3 11.9-25.2 15.3-37.1 0 3.4 5.1 8.5 0 8.5 0 8.5 0 15.3-3.4 23.8-8.5 48.6-20.4 92.4-28.5 141.4-8.5 28.5-3.5 25.1-28.6 25.1h-491.6-89.4-8.1c3-5.1 3-5.1 8.1-5.1 8.5-8.6 20.5-14.9 31.9-23.5 8.6-5 12-11.8 20.5-20.3 3.4-11.6 11.5-25.2 11.5-40.5v-11.5-20.4-994.8-28.4c0-20.1-8.1-35.4-14.9-47.3-8.5-8.1-17.1-16.6-28.5-25.1q-12-5.2-25.6-12v-2.9h5.1 15.3 562.4c19.9 0 19.9-5.2 19.9 23.4 8.5 49 17.1 97.5 20.1 144.7 3.3 13.6 3.3 25.1 3.3 33.6z"/>
			</g>
		</g>
	</g>
</svg>