<svg version="1.2" xmlns="http://www.w3.org/2000/svg" viewBox="0 0 486 1582" width="486" height="1582">
	<title>ESRT_BIG copy-svg</title>
	<style>
		.s0 { fill: #6e9934 } 
	</style>
	<path id="Layer" fill-rule="evenodd" class="s0" d="m0.2 1582v-167.8h44.1v-193.8h35.5v-115h25.9v-556.2h9.5v-106.4h17.3v-61.5h8.7v-18.1h18.1v-17.3h17.3v-8.7h8.7v-9.5h9.5v-8.6h-9.5v-17.3h9.5v-18.2h8.6v-88.2h8.7v-8.7c0 0 0 0 8.6-8.6v-115.1c0 0 0-8.6 8.7-8.6 0 0 0-44.2 0-53.7 9.5 0 9.5 9.5 9.5 9.5v44.2c8.7 0 8.7 8.6 8.7 8.6v115.1c8.6 0 8.6 8.6 8.6 8.6v8.7h8.7v88.2h8.6v18.2h9.5v17.3h8.7v8.6h8.6v9.5h8.7v8.7h18.1v17.3h17.3v18.1h8.7v61.5h18.1v106.4h8.7v556.2h26.8v115h34.6v193.8h44.1v167.8z"/>
</svg>