<svg version="1.2" xmlns="http://www.w3.org/2000/svg" viewBox="0 0 1450 1574" width="1450" height="1574">
	<title>logo-header-svg</title>
	<style>
		.s0 { fill: #ffffff } 
		.s1 { fill: #9ad34b } 
		.s2 { fill: #d53b16 } 
		.s3 { fill: #2c94e3 } 
	</style>
	<g id="Group_4117">
		<path id="Path_725" class="s0" d="m892 0.8l-2 293.8 373.6 2.7-546.3 322.1-560.6-329.8 392.5 2.8 2-291.3-531.6 301.9 699.2 410.3 704.8-400.4z"/>
		<path id="Path_726" class="s0" d="m703.1 762.8l-5.4 810.6-536.7-314.9 283.6-159.4 195.5 346.6 5-654.7-558.9-328.9 191.6 339.9-277.8 155.9 4.1-605.2z"/>
		<path id="Path_727" class="s0" d="m1177.6 807.5l202.4-343.5-569.5 324.9-0.2 641.9 194.1-329.7 272.1 160.4-536.8 305.1 5.7-810.5 704.5-400.6-4.2 610.2z"/>
		<path id="Path_728" class="s1" d="m1423.6 312.6l-704.8 400.4-699.2-410.2 531.7-302-2 291.4-392.6-2.8 560.7 329.7 546.2-321.9-373.5-2.7 1.9-293.7z"/>
		<path id="Path_729" class="s2" d="m703.1 762.8l-5.4 810.6-536.7-314.9 283.6-159.4 195.5 346.6 5-654.7-558.9-328.9 191.6 339.9-277.8 155.9 4.1-605.2z"/>
		<path id="Path_730" class="s3" d="m1177.6 807.5l202.4-343.5-569.5 324.9-0.2 641.9 194.1-329.7 272.1 160.4-536.8 305.1 5.7-810.5 704.5-400.6-4.2 610.2z"/>
	</g>
</svg>