<svg version="1.2" xmlns="http://www.w3.org/2000/svg" viewBox="0 0 1512 1522" width="1512" height="1522">
	<title>sunsusn-svg</title>
	<defs>
		<clipPath clipPathUnits="userSpaceOnUse" id="cp1">
			<path d="m0 0.37h5666.33v1521.49h-5666.33z"/>
		</clipPath>
	</defs>
	<style>
		.s0 { fill: #033730 } 
	</style>
	<g id="Clip-Path: Group_8194" clip-path="url(#cp1)">
		<g id="Group_8194">
			<path id="Path_27849" class="s0" d="m1292.3 226.6q-8-8.9-16.4-17.5-8.4-8.6-17-16.9-8.6-8.3-17.5-16.4-8.9-8.1-18-15.9-1.2-0.9-2.4-1.8-1.2-0.8-2.5-1.6-1.2-0.8-2.6-1.5-1.3-0.6-2.6-1.2-2.4-1.1-4.9-1.8-2.5-0.7-5.1-1.1-2.5-0.3-5.1-0.4-2.6 0-5.2 0.3-4.1 0.5-8 1.9-3.9 1.3-7.5 3.4-3.6 2.1-6.6 4.9-3.1 2.8-5.5 6.2l-244.3 327.4q5.5 6.6 10.2 13.7 4.7 7.1 8.6 14.8 3.8 7.6 6.7 15.6 3 8.1 4.9 16.4 0.8 0.3 1.6 0.4 0.8 0.1 1.7 0.1 0.8-0.1 1.6-0.3 0.8-0.3 1.5-0.7l330.7-269.7q3.1-2.6 5.6-5.7 2.5-3.2 4.3-6.8 1.8-3.6 2.9-7.5 1.1-3.9 1.4-7.9 0.2-4.2-0.3-8.3-0.6-4.1-2-8-1.3-3.9-3.5-7.5c-1.4-2.4-3-4.6-4.7-6.6zm-420.3 219.3l154.8-353.7q1.6-3.7 2.5-7.6 0.8-3.9 0.9-8 0.1-4-0.7-8-0.7-3.9-2.2-7.7-1.7-3.8-4.2-7.2-2.5-3.4-5.5-6.3-3-2.9-6.6-5.2-3.5-2.3-7.4-3.8-11.1-4.3-22.3-8.1-11.2-3.9-22.5-7.4-11.4-3.5-22.8-6.6-11.5-3.2-23-5.9-4-1-8.1-1.1-4.1-0.1-8.1 0.6-4.1 0.7-7.9 2.2-3.8 1.5-7.2 3.8-3.5 2.3-6.5 5.2-2.9 2.9-5.2 6.4-2.3 3.5-3.8 7.4-1.5 3.9-2.2 8l-54.7 382.7q7.6 2 15.2 4.6 7.5 2.5 14.8 5.6 7.3 3 14.4 6.5 7.1 3.5 13.9 7.5 0.7-0.2 1.4-0.6 0.7-0.4 1.2-0.9 0.6-0.5 1.1-1.1c0.3-0.4 0.6-0.9 0.7-1.3zm-138.6-28.1l-27.6-379.4q-0.1-4.1-1-8-0.9-3.9-2.6-7.6-1.7-3.7-4.1-6.9-2.5-3.2-5.5-5.9-1.1-1-2.4-1.9-1.2-1-2.5-1.8-1.3-0.8-2.7-1.6-1.4-0.7-2.8-1.3-2.3-1-4.8-1.7-2.4-0.7-5-1.1-2.5-0.4-5-0.4-2.6-0.1-5.1 0.2-12 1.3-23.9 2.9-12 1.6-23.9 3.7-11.8 2-23.7 4.4-11.8 2.3-23.5 5.1-4 1-7.8 2.7-3.7 1.8-7.1 4.2-3.3 2.5-6.1 5.5-2.8 3.1-5 6.6-2.1 3.6-3.5 7.5-1.3 4-1.9 8.1-0.5 4.2-0.2 8.3 0.3 4.2 1.5 8.2l130.4 364.3c1.5-0.5 2.8-1.1 4.2-1.6q7.5-2.6 15.1-4.7 7.6-2.1 15.3-3.7 7.7-1.6 15.5-2.6 7.9-1 15.7-1.5zm-128 52.6l-227.3-332.4q-1.6-2.9-3.5-5.4-2-2.6-4.4-4.8-2.4-2.2-5.1-3.9-2.7-1.8-5.7-3.1-0.7-0.3-1.4-0.5-0.7-0.3-1.4-0.6-0.8-0.2-1.5-0.5-0.7-0.2-1.5-0.4-4-1-8.1-1.2-4.1-0.1-8.2 0.5-4.1 0.7-7.9 2.2-3.8 1.5-7.3 3.7-9.9 6.7-19.5 13.8-9.6 7-19 14.4-9.4 7.3-18.5 15-9.2 7.6-18.1 15.6-3.2 2.6-5.9 5.9-2.6 3.2-4.6 6.9-2 3.7-3.2 7.7-1.2 4.1-1.6 8.2-0.4 4.2 0.1 8.3 0.5 4.1 1.9 8 1.3 3.9 3.4 7.5 2.1 3.6 4.9 6.6l309.2 266.5q1.6 1 3.1 2.1 1.5 1 3 2.1 1.5 1.1 3 2.3 1.4 1.2 2.9 2.4 0.2 0.1 0.5 0.1 0.3 0.1 0.5 0.2 0.3 0 0.6 0 0.3 0 0.6 0 4.1-6.5 8.7-12.8 4.7-6.3 9.7-12.2 5-5.9 10.4-11.5c3.6-3.7 7.3-7.3 11.2-10.7zm-458.6-110.5q-3.3-2.2-7-3.8-3.6-1.5-7.5-2.3-3.9-0.8-7.9-0.8-4 0-7.9 0.9-4 0.9-7.8 2.6-3.8 1.7-7.2 4.1-3.3 2.4-6.2 5.4-2.8 3.1-5 6.6-6 10.5-11.8 21.2-5.7 10.7-11.1 21.6-5.4 10.9-10.4 21.9-5.1 11-9.8 22.2-1.8 3.8-2.7 7.9-1 4-1.2 8.2-0.1 4.2 0.6 8.3 0.6 4.1 2.1 8 1.4 3.7 3.5 7 2.1 3.3 4.9 6.1 2.7 2.8 6 5 3.2 2.2 6.9 3.8h0.2l458.9 130.2q0.2-8.8 1.1-17.5 0.9-8.8 2.4-17.4 1.5-8.6 3.6-17.1 2.1-8.6 4.9-16.9zm-100.7 312.6q-3.9-0.5-7.8-0.3-3.9 0.3-7.6 1.3-3.8 1-7.3 2.8-3.4 1.8-6.5 4.3-3.1 2.5-5.8 5.6-2.6 3.1-4.5 6.6-2 3.6-3.1 7.5-1.2 3.9-1.6 7.9-0.8 12-1.2 24-0.4 12-0.5 24.1-0.1 12 0.3 24 0.3 12 0.9 24 0.1 4 1 8 0.9 3.9 2.5 7.5 1.7 3.7 4 6.9 2.4 3.3 5.4 6 1.1 1 2.4 2 1.2 1 2.5 1.8 1.4 0.9 2.8 1.6 1.4 0.7 2.9 1.3 2.2 1 4.5 1.6 2.3 0.7 4.7 1 2.4 0.4 4.8 0.4 2.4 0.1 4.8-0.2l528.6-66.7q-6.6-7.3-12.3-15.4-5.7-8-10.4-16.7-4.8-8.6-8.6-17.7-3.7-9.2-6.4-18.6zm163 564.6q-3.1 2.7-5.6 5.8-2.5 3.2-4.4 6.8-1.8 3.6-2.8 7.5-1.1 3.9-1.4 7.9-0.3 4.1 0.3 8.2 0.6 4.2 1.9 8.1 1.4 3.9 3.5 7.5 2.1 3.5 4.9 6.6 8.1 8.9 16.5 17.5 8.3 8.6 17 16.9 8.6 8.4 17.5 16.4 8.8 8.1 18 15.9 1.1 0.9 2.3 1.8 1.2 0.8 2.5 1.6 1.3 0.8 2.6 1.5 1.3 0.7 2.7 1.2 2.4 1.1 4.8 1.8 2.5 0.7 5.1 1.1 2.6 0.3 5.1 0.4 2.6 0 5.2-0.3 4.1-0.5 8-1.9 3.9-1.3 7.5-3.4 3.6-2.1 6.6-4.9 3.1-2.8 5.5-6.2l245.7-312.8q-5.8-8-10.5-16.7-4.6-8.6-8.1-17.8-3.5-9.3-5.7-18.9-2.2-9.6-3-19.4zm261.9 192.9q-1.6 3.7-2.5 7.6-0.8 4-0.9 8-0.1 4 0.6 8 0.8 4 2.2 7.7 1.8 3.8 4.3 7.2 2.4 3.4 5.5 6.3 3 2.9 6.6 5.2 3.5 2.3 7.4 3.9 11.1 4.2 22.3 8.1 11.2 3.9 22.5 7.4 11.4 3.5 22.8 6.6 11.5 3.1 23 5.9 4 0.9 8.1 1 4.1 0.2 8.1-0.5 4.1-0.7 7.9-2.3 3.8-1.5 7.2-3.7 3.5-2.3 6.4-5.3 3-2.9 5.3-6.4 2.3-3.5 3.8-7.4 1.5-3.8 2.2-7.9l51.2-361.1q-8.5-3-16.8-6.5-8.2-3.5-16.2-7.6-8-4.2-15.6-8.9-7.7-4.7-14.9-10zm294.9-297.6l26 351.3q0.1 4.1 1 8 1 3.9 2.7 7.6 1.7 3.6 4.1 6.9 2.4 3.2 5.5 5.9 1.1 1 2.4 1.9 1.2 1 2.5 1.8 1.3 0.8 2.7 1.6 1.3 0.7 2.8 1.3 2.3 1 4.8 1.7 2.4 0.7 4.9 1.1 2.6 0.4 5.1 0.4 2.5 0 5.1-0.2 12-1.3 23.9-2.9 11.9-1.6 23.8-3.6 11.9-2 23.7-4.3 11.8-2.4 23.6-5.1 4-1 7.7-2.8 3.8-1.7 7.2-4.2 3.3-2.4 6.1-5.5 2.8-3 5-6.6 2.1-3.5 3.4-7.5 1.4-3.9 1.9-8.1 0.6-4.1 0.2-8.3-0.3-4.1-1.4-8.1l-120.4-334.3q-9 3.1-18.2 5.5-9.2 2.3-18.5 3.8-9.4 1.5-18.8 2.3c-6.3 0.4-12.6 0.6-18.8 0.4zm143.4-54.3l210.3 306.1q1.5 2.9 3.5 5.5 2 2.5 4.4 4.7 2.3 2.2 5.1 4 2.7 1.7 5.7 3 0.7 0.3 1.4 0.6 0.7 0.3 1.4 0.5 0.8 0.3 1.5 0.5 0.7 0.2 1.5 0.4 4 1 8.1 1.2 4.1 0.2 8.2-0.5 4-0.7 7.9-2.2 3.8-1.5 7.3-3.7 9.8-6.7 19.5-13.8 9.6-7 19-14.3 9.4-7.4 18.5-15 9.2-7.7 18.1-15.6 3.2-2.7 5.9-5.9 2.6-3.3 4.6-7 2-3.7 3.2-7.7 1.2-4 1.6-8.2 0.4-4.1-0.1-8.2-0.5-4.2-1.9-8.1-1.3-3.9-3.4-7.5-2.1-3.5-4.9-6.6l-302.5-259.6q-4.3 8-9.2 15.6-4.9 7.7-10.4 14.9-5.5 7.2-11.6 13.9-6.1 6.8-12.7 13zm65.6-115.3l376 199.4q3.3 2.3 7 3.8 3.6 1.6 7.5 2.4 3.9 0.8 7.9 0.7 4 0 7.8-0.8 4.1-0.9 7.9-2.6 3.8-1.7 7.2-4.1 3.3-2.4 6.2-5.5 2.8-3 5-6.6 6-10.5 11.8-21.2 5.7-10.7 11.1-21.6 5.4-10.9 10.5-21.9 5-11.1 9.7-22.3 1.8-3.8 2.7-7.8 1-4.1 1.2-8.3 0.1-4.1-0.6-8.2-0.6-4.2-2.1-8.1-1.4-3.6-3.5-6.9-2.1-3.4-4.9-6.2-2.7-2.8-6-5-3.2-2.2-6.9-3.7h-0.2l-449.5-116.3q0.7 9 0.6 17.9 0 8.9-0.7 17.9-0.7 8.9-2.1 17.7c-0.9 5.9-2.1 11.8-3.6 17.3zm534.5-241.6q-0.1-4.2-1-8.2-0.9-4-2.6-7.7-1.7-3.8-4.1-7.1-2.4-3.4-5.5-6.1-1.1-1.2-2.4-2.2-1.2-1-2.5-1.9-1.4-0.9-2.8-1.6-1.4-0.8-2.9-1.4-2.3-1-4.6-1.7-2.4-0.6-4.8-1-2.5-0.4-5-0.4-2.4-0.1-4.9 0.2l-554 76.7q8 6.4 15.3 13.7 7.3 7.3 13.7 15.3 6.4 8.1 11.8 16.9 5.4 8.8 9.7 18.1l502 27.7q3.9 0.6 7.9 0.4 4-0.3 7.9-1.3 3.8-1.1 7.4-2.9 3.5-1.9 6.7-4.4 3.2-2.6 5.9-5.8 2.7-3.1 4.7-6.8 2-3.6 3.2-7.6 1.2-4 1.6-8.1 0.7-11.6 1-23.3 0.3-11.6 0.2-23.2-0.1-11.6-0.5-23.3c-0.3-7.7-0.8-15.5-1.4-23zm-51-206.2q-1.5 4.3-3.7 8.3-2.3 3.9-5.3 7.3-3 3.5-6.6 6.2-3.5 2.8-7.6 4.9l-572.9 173q-2.4 1.1-4.9 1.7-2.6 0.6-5.2 0.7-2.6 0-5.2-0.4-2.6-0.4-5.1-1.4-2.2-0.9-4.3-2.1-2.1-1.3-3.9-2.9-1.8-1.6-3.3-3.5-1.5-1.9-2.6-4c-1.7-2.8-2.9-6-3.4-9.2-0.6-3.3-0.5-6.6 0.1-9.8 0.7-3.3 1.9-6.4 3.7-9.2 1.7-2.8 4-5.2 6.6-7.2l525.7-267.5 1.6-0.9q3.6-2.4 7.6-4.1 4-1.7 8.2-2.7 4.3-1.1 8.6-1.3 4.3-0.3 8.7 0.2 1.2 0.2 2.3 0.5 1.2 0.2 2.3 0.5 1.2 0.3 2.3 0.7 1.2 0.4 2.3 0.8 3.3 1.3 6.4 3 3 1.8 5.8 4 2.8 2.2 5.2 4.8 2.4 2.6 4.4 5.5 3 4.8 5.8 9.8 2.8 5 5.2 10.1 2.5 5.2 4.6 10.5 2.1 5.3 3.8 10.7 1.1 3.3 2.4 6.6 1.2 3.3 2.5 6.5 1.3 3.2 2.8 6.4 1.4 3.2 2.9 6.3 2.2 4.3 3.4 9 1.2 4.6 1.5 9.4 0.3 4.8-0.3 9.6c-0.4 3.1-1.2 6.3-2.4 9.2zm-1415.8 491.7q1.4-4.4 3.7-8.4 2.3-4.1 5.3-7.6 3-3.5 6.6-6.3 3.6-2.9 7.8-5l537.7-154.4q2.4-1.1 5-1.8 2.6-0.6 5.3-0.7 2.7-0.1 5.3 0.3 2.6 0.5 5.1 1.4 2.3 0.9 4.5 2.1 2.1 1.3 3.9 2.9 1.9 1.6 3.4 3.5 1.6 2 2.8 4.1c1.7 2.9 2.9 6.1 3.5 9.4 0.5 3.3 0.5 6.7-0.2 10-0.6 3.3-1.9 6.5-3.6 9.3-1.8 2.9-4.1 5.4-6.8 7.4l-488.9 250.1-1.5 1q-3.7 2.4-7.8 4.2-4 1.8-8.3 2.9-4.3 1-8.7 1.3-4.4 0.3-8.8-0.2-1.3-0.2-2.4-0.4-1.2-0.3-2.4-0.6-1.2-0.3-2.3-0.6-1.2-0.4-2.3-0.8-3.4-1.3-6.5-3.1-3.2-1.7-6-3.9-2.8-2.2-5.3-4.9-2.4-2.6-4.5-5.5-3.1-4.9-6-9.9-2.8-5.1-5.4-10.3-2.5-5.2-4.6-10.6-2.2-5.4-4-10.9-1.2-3.4-2.5-6.7-1.3-3.3-2.6-6.6-1.4-3.3-2.9-6.5-1.5-3.2-3.1-6.4-2.2-4.4-3.5-9.1-1.3-4.7-1.6-9.6-0.4-4.9 0.3-9.7c0.4-3.2 1.1-6.4 2.3-9.4z"/>
		</g>
	</g>
</svg>